<?xml version="1.0" encoding="UTF-8"?>
<svg xmlns="http://www.w3.org/2000/svg" xmlns:xlink="http://www.w3.org/1999/xlink" width="90px" height="90px" viewBox="0 0 90 90" version="1.1">
<g id="surface1">
<path style=" stroke:none;fill-rule:nonzero;fill:rgb(0%,0%,0%);fill-opacity:1;" d="M 19.054688 0 L 23.097656 0 L 23.097656 4.007812 L 26.824219 4.007812 L 26.824219 0 L 30.867188 0 L 30.867188 12.128906 L 26.824219 12.128906 L 26.824219 8.085938 L 23.132812 8.085938 L 23.132812 12.128906 L 19.054688 12.128906 M 36.210938 4.042969 L 32.644531 4.042969 L 32.644531 0 L 43.839844 0 L 43.839844 4.042969 L 40.253906 4.042969 L 40.253906 12.128906 L 36.210938 12.128906 M 45.613281 0 L 49.851562 0 L 52.453125 4.269531 L 55.054688 0 L 59.292969 0 L 59.292969 12.128906 L 55.246094 12.128906 L 55.246094 6.117188 L 52.417969 10.476562 L 49.585938 6.117188 L 49.585938 12.128906 L 45.613281 12.128906 M 61.292969 0 L 65.339844 0 L 65.339844 8.121094 L 71.066406 8.121094 L 71.066406 12.128906 L 61.292969 12.128906 "/>
<path style=" stroke:none;fill-rule:nonzero;fill:rgb(89.411765%,30.196078%,14.901961%);fill-opacity:1;" d="M 18.914062 82.792969 L 13.113281 17.683594 L 76.886719 17.683594 L 71.085938 82.757812 L 44.949219 90 "/>
<path style=" stroke:none;fill-rule:nonzero;fill:rgb(94.509804%,39.607843%,16.078431%);fill-opacity:1;" d="M 45 84.464844 L 45 23.027344 L 71.066406 23.027344 L 66.09375 78.574219 "/>
<path style=" stroke:none;fill-rule:nonzero;fill:rgb(92.156863%,92.156863%,92.156863%);fill-opacity:1;" d="M 24.960938 30.988281 L 45 30.988281 L 45 38.972656 L 33.714844 38.972656 L 34.453125 47.144531 L 45 47.144531 L 45 55.109375 L 27.140625 55.109375 M 27.492188 59.113281 L 35.507812 59.113281 L 36.070312 65.496094 L 45 67.886719 L 45 76.21875 L 28.617188 71.648438 "/>
<path style=" stroke:none;fill-rule:nonzero;fill:rgb(100%,100%,100%);fill-opacity:1;" d="M 64.96875 30.988281 L 44.964844 30.988281 L 44.964844 38.972656 L 64.230469 38.972656 M 63.511719 47.144531 L 44.964844 47.144531 L 44.964844 55.125 L 54.808594 55.125 L 53.878906 65.496094 L 44.964844 67.886719 L 44.964844 76.183594 L 61.3125 71.648438 "/>
</g>
</svg>
